<svg width="232" height="142" viewBox="0 0 232 142" fill="none" xmlns="http://www.w3.org/2000/svg">
<path d="M223.828 0H8.65197C4.15684 0 0.768167 4.08525 1.59885 8.50295C2.24023 11.9139 5.23065 14.3772 8.70133 14.3533L223.873 12.873C226.83 12.8526 229.393 10.8195 230.086 7.94428C231.061 3.89537 227.993 0 223.828 0Z" fill="#8E8F93"/>
<g filter="url(#filter0_ii_109_66)">
<path d="M0.824984 17.1745C0.537614 11.3276 0.393929 8.40408 1.44272 6.15805C2.36464 4.18373 3.90619 2.56455 5.83288 1.54682C8.02472 0.389038 10.9517 0.389038 16.8057 0.389038H215.24C221.08 0.389038 224 0.389038 226.188 1.54301C228.113 2.55742 229.654 4.17159 230.578 6.14078C231.629 8.38088 231.494 11.2976 231.223 17.1309L226.135 126.742C225.886 132.106 225.761 134.788 224.638 136.827C223.649 138.621 222.133 140.068 220.296 140.972C218.207 142 215.522 142 210.152 142H22.1929C16.836 142 14.1576 142 12.0724 140.976C10.2371 140.075 8.72217 138.632 7.73182 136.843C6.60667 134.811 6.47519 132.136 6.21222 126.785L0.824984 17.1745Z" fill="url(#paint0_linear_109_66)"/>
</g>
<path d="M129.503 79.3722C129 80.5411 128.405 81.6171 127.715 82.6063C126.775 83.9549 126.005 84.8884 125.412 85.4067C124.492 86.2576 123.507 86.6934 122.452 86.7181C121.695 86.7181 120.781 86.5013 119.718 86.0614C118.651 85.6236 117.671 85.4067 116.775 85.4067C115.835 85.4067 114.826 85.6236 113.748 86.0614C112.668 86.5013 111.798 86.7305 111.132 86.7532C110.121 86.7966 109.112 86.3485 108.106 85.4067C107.463 84.8429 106.66 83.8764 105.697 82.5072C104.664 81.045 103.815 79.3494 103.15 77.4164C102.437 75.3285 102.08 73.3066 102.08 71.3492C102.08 69.107 102.562 67.1731 103.526 65.5526C104.284 64.2508 105.293 63.224 106.555 62.4702C107.817 61.7164 109.181 61.3323 110.649 61.3077C111.453 61.3077 112.507 61.5578 113.816 62.0493C115.122 62.5425 115.961 62.7926 116.328 62.7926C116.603 62.7926 117.535 62.5002 119.114 61.9172C120.607 61.3765 121.867 61.1526 122.9 61.2408C125.697 61.468 127.799 62.5776 129.197 64.5767C126.695 66.1021 125.457 68.2386 125.482 70.9793C125.504 73.1141 126.274 74.8906 127.787 76.3012C128.472 76.9559 129.238 77.4618 130.09 77.8212C129.905 78.3602 129.71 78.8765 129.503 79.3722V79.3722ZM123.086 53.9679C123.086 55.6412 122.479 57.2035 121.268 58.6496C119.806 60.3687 118.039 61.362 116.122 61.2053C116.097 61.0045 116.083 60.7933 116.083 60.5713C116.083 58.9649 116.778 57.2458 118.012 55.8403C118.629 55.1286 119.412 54.5368 120.363 54.0648C121.311 53.5998 122.208 53.3426 123.052 53.2986C123.076 53.5223 123.086 53.746 123.086 53.9679V53.9679Z" fill="url(#paint1_linear_109_66)"/>
<mask id="mask0_109_66" style="mask-type:alpha" maskUnits="userSpaceOnUse" x="102" y="53" width="29" height="34">
<path d="M129.503 79.3722C129 80.5411 128.405 81.6171 127.715 82.6063C126.775 83.9549 126.005 84.8884 125.412 85.4067C124.492 86.2576 123.507 86.6934 122.452 86.7181C121.695 86.7181 120.781 86.5013 119.718 86.0614C118.651 85.6236 117.671 85.4067 116.775 85.4067C115.835 85.4067 114.826 85.6236 113.748 86.0614C112.668 86.5013 111.798 86.7305 111.132 86.7532C110.121 86.7966 109.112 86.3485 108.106 85.4067C107.463 84.8429 106.66 83.8764 105.697 82.5072C104.664 81.045 103.815 79.3494 103.15 77.4164C102.437 75.3285 102.08 73.3066 102.08 71.3492C102.08 69.107 102.562 67.1731 103.526 65.5526C104.284 64.2508 105.293 63.224 106.555 62.4702C107.817 61.7164 109.181 61.3323 110.649 61.3077C111.453 61.3077 112.507 61.5578 113.816 62.0493C115.122 62.5425 115.961 62.7926 116.328 62.7926C116.603 62.7926 117.535 62.5002 119.114 61.9172C120.607 61.3765 121.867 61.1526 122.9 61.2408C125.697 61.468 127.799 62.5776 129.197 64.5767C126.695 66.1021 125.457 68.2386 125.482 70.9793C125.504 73.1141 126.274 74.8906 127.787 76.3012C128.472 76.9559 129.238 77.4618 130.09 77.8212C129.905 78.3602 129.71 78.8765 129.503 79.3722V79.3722ZM123.086 53.9679C123.086 55.6412 122.479 57.2035 121.268 58.6496C119.806 60.3687 118.039 61.362 116.122 61.2053C116.097 61.0045 116.083 60.7933 116.083 60.5713C116.083 58.9649 116.778 57.2458 118.012 55.8403C118.629 55.1286 119.412 54.5368 120.363 54.0648C121.311 53.5998 122.208 53.3426 123.052 53.2986C123.076 53.5223 123.086 53.746 123.086 53.9679V53.9679Z" fill="url(#paint2_linear_109_66)"/>
</mask>
<g mask="url(#mask0_109_66)">
<rect width="34.8738" height="34.9402" transform="matrix(0.807872 -0.589359 0.584648 0.811287 105.947 57.578)" fill="url(#paint3_linear_109_66)"/>
</g>
<path d="M143.847 51.8828L141.406 52.3021C141.76 53.2924 142.426 54.1407 143.305 54.719L144.242 52.4494C144.264 52.4125 144.277 52.3713 144.281 52.3286C144.285 52.2859 144.28 52.2428 144.266 52.2024C144.242 52.0074 144.045 51.8828 143.847 51.8828V51.8828ZM144.784 48.726C145.007 48.726 145.204 48.5538 145.204 48.3317L145.327 45.8649L144.833 45.9635C143.968 46.167 143.175 46.6022 142.539 47.2223L144.586 48.6773C144.661 48.7011 144.711 48.726 144.784 48.726V48.726ZM143.699 50.3293C143.734 50.2892 143.76 50.2425 143.777 50.192C143.793 50.1415 143.799 50.0881 143.795 50.0352C143.79 49.9822 143.775 49.9307 143.75 49.8837C143.726 49.8368 143.691 49.7952 143.65 49.7617L141.825 48.1334C141.286 49.0406 141.036 50.0903 141.109 51.1429L143.502 50.4528C143.6 50.4279 143.65 50.403 143.699 50.3293ZM145.277 51.1928L145.945 51.5134L146.61 51.1928L146.783 50.4767L146.314 49.8852H145.574L145.105 50.4767L145.277 51.1928ZM146.733 48.5538C146.857 48.726 147.103 48.7509 147.275 48.6523L149.298 47.2223C148.548 46.473 147.564 46.0028 146.51 45.8898L146.659 48.3815C146.658 48.4138 146.665 48.4458 146.678 48.4755C146.691 48.5052 146.71 48.5318 146.733 48.5538V48.5538Z" fill="#333333"/>
<path d="M156.773 52.2782L154.898 44.2117C154.776 43.8174 154.479 43.4967 154.109 43.2996L146.586 39.6975C146.389 39.5989 146.167 39.574 145.97 39.574C145.772 39.574 145.55 39.574 145.353 39.6227L137.828 43.2497C137.643 43.3344 137.48 43.4609 137.352 43.6191C137.223 43.7773 137.133 43.9631 137.088 44.1619L135.238 52.2782C135.164 52.6975 135.263 53.1167 135.509 53.4623L140.714 59.9006C141.01 60.1963 141.429 60.3946 141.849 60.4195H150.137C150.581 60.4682 151.001 60.2711 151.273 59.9006L156.478 53.4623C156.724 53.1167 156.822 52.6975 156.773 52.2782V52.2782ZM153.691 52.821C153.641 52.821 153.617 52.821 153.567 52.7961C153.543 52.7711 153.543 52.7711 153.518 52.7711C153.468 52.7711 153.445 52.7473 153.419 52.7473C153.32 52.7224 153.246 52.6736 153.148 52.6238C153.095 52.6191 153.045 52.6024 152.999 52.5751H152.976C152.72 52.4757 152.456 52.4013 152.186 52.353H152.162C152.089 52.3511 152.019 52.3775 151.965 52.4266C151.965 52.4266 151.965 52.4516 151.94 52.4516L151.742 52.4256C151.288 53.8295 150.342 55.0215 149.077 55.7806L149.15 55.9778C149.15 55.9778 149.126 55.9778 149.126 56.0016C149.104 56.0384 149.091 56.0797 149.086 56.1224C149.082 56.1652 149.088 56.2083 149.103 56.2486C149.201 56.4956 149.325 56.7416 149.497 56.9636V57.0124C149.537 57.0471 149.571 57.089 149.596 57.1359C149.667 57.2077 149.725 57.2912 149.768 57.3829C149.793 57.4067 149.818 57.4316 149.818 57.4566C149.818 57.4566 149.841 57.4566 149.841 57.4804C149.887 57.5986 149.895 57.7277 149.866 57.8509C149.852 57.9096 149.824 57.9643 149.786 58.0111C149.747 58.0579 149.699 58.0957 149.644 58.1217C149.571 58.1456 149.521 58.1705 149.446 58.1705C149.349 58.1668 149.254 58.1375 149.172 58.0856C149.089 58.0336 149.022 57.9609 148.977 57.8747C148.953 57.8747 148.953 57.8509 148.953 57.8509C148.929 57.826 148.929 57.8021 148.903 57.7772C148.855 57.7036 148.83 57.605 148.805 57.5064L148.755 57.358V57.3341C148.674 57.0691 148.567 56.8129 148.434 56.5693C148.387 56.4994 148.317 56.4472 148.237 56.4209C148.237 56.396 148.237 56.396 148.212 56.396L148.114 56.2237C147.867 56.2974 147.595 56.396 147.324 56.4458C146.88 56.5693 146.435 56.6181 145.992 56.6181C145.259 56.6232 144.53 56.4894 143.846 56.2237L143.748 56.4209C143.748 56.4458 143.748 56.4458 143.723 56.4458C143.642 56.4719 143.573 56.5242 143.526 56.5942C143.402 56.8412 143.279 57.0871 143.205 57.3591L143.156 57.5075C143.131 57.6061 143.083 57.6797 143.058 57.7783C143.034 57.8032 143.009 57.8271 143.009 57.852C142.984 57.852 142.984 57.8758 142.984 57.8758C142.939 57.9622 142.872 58.0351 142.789 58.0871C142.707 58.139 142.612 58.1682 142.515 58.1716C142.455 58.1665 142.396 58.1499 142.343 58.1228C142.231 58.0576 142.149 57.9524 142.112 57.8287C142.076 57.7049 142.088 57.5719 142.145 57.4566C142.17 57.4566 142.17 57.4316 142.17 57.4316C142.194 57.4067 142.194 57.3829 142.219 57.358C142.293 57.2594 142.343 57.1608 142.391 57.111C142.44 57.0611 142.465 57.0373 142.49 56.9875V56.9626C142.645 56.7382 142.777 56.4986 142.884 56.2476C142.899 56.2071 142.904 56.164 142.9 56.1213C142.895 56.0786 142.882 56.0373 142.859 56.0006C142.859 56.0006 142.836 56.0006 142.836 55.9767L142.959 55.8034C142.722 55.6787 142.499 55.5299 142.293 55.3592C141.343 54.6235 140.638 53.6174 140.27 52.4732L140.048 52.4971C140.048 52.4971 140.048 52.4732 140.023 52.4732C139.97 52.4237 139.899 52.3973 139.826 52.3996H139.802C139.525 52.4471 139.252 52.5214 138.989 52.6216H138.963C138.914 52.6216 138.864 52.6466 138.814 52.6715C138.741 52.6953 138.642 52.7451 138.543 52.7701C138.52 52.7701 138.445 52.7462 138.445 52.7701C138.445 52.795 138.445 52.795 138.42 52.795C138.371 52.8199 138.346 52.8199 138.296 52.8199C138.186 52.8315 138.076 52.803 137.985 52.7395C137.894 52.676 137.829 52.5818 137.802 52.4743C137.79 52.4111 137.791 52.346 137.804 52.2829C137.817 52.2199 137.843 52.1601 137.88 52.1072C137.916 52.0543 137.963 52.0093 138.018 51.9748C138.072 51.9404 138.133 51.9172 138.197 51.9066C138.222 51.8817 138.222 51.8817 138.247 51.8817C138.295 51.8817 138.32 51.8579 138.345 51.8579C138.444 51.8579 138.542 51.833 138.641 51.833C138.69 51.8091 138.739 51.8091 138.789 51.8091C139.073 51.786 139.354 51.7363 139.628 51.6607C139.701 51.6109 139.776 51.5621 139.801 51.4874C139.801 51.4874 139.825 51.4874 139.825 51.4636L140.022 51.4137C139.8 50.0076 140.121 48.5776 140.886 47.3686C140.909 47.3198 140.934 47.2949 140.959 47.2451L140.817 47.1021C140.817 47.109 140.815 47.1159 140.813 47.1226V47.0977L140.817 47.1021C140.828 47.0316 140.784 46.945 140.739 46.9006C140.542 46.7034 140.295 46.555 140.048 46.4076L139.901 46.3329C139.808 46.2888 139.717 46.2396 139.629 46.1856C139.605 46.1856 139.555 46.1368 139.555 46.1368C139.555 46.1368 139.555 46.1119 139.531 46.1119C139.434 46.0282 139.37 45.9118 139.351 45.7845C139.333 45.6572 139.362 45.5275 139.432 45.4196C139.505 45.2961 139.629 45.2474 139.777 45.2474C139.903 45.2504 140.024 45.2937 140.123 45.3709L140.148 45.3958C140.172 45.4196 140.197 45.4196 140.221 45.4446C140.295 45.5193 140.345 45.593 140.419 45.6666C140.444 45.6905 140.492 45.7154 140.517 45.7652C140.689 45.9624 140.912 46.1596 141.134 46.3329C141.182 46.3567 141.232 46.3816 141.282 46.3816C141.331 46.3816 141.356 46.3567 141.381 46.3567H141.406L141.554 46.4553C142.367 45.5857 143.425 44.9835 144.588 44.7285C144.884 44.6786 145.155 44.6299 145.427 44.605L145.452 44.4078V44.3591C145.525 44.3103 145.55 44.2356 145.575 44.1619C145.575 43.8661 145.575 43.5942 145.527 43.3234V43.2985C145.527 43.2497 145.527 43.1999 145.502 43.1501C145.473 43.0538 145.457 42.9545 145.453 42.8543V42.7319C145.453 42.6084 145.502 42.4849 145.601 42.3863C145.725 42.2628 145.872 42.1891 146.021 42.2141C146.143 42.2311 146.255 42.294 146.332 42.3902C146.41 42.4863 146.449 42.6085 146.44 42.7319V42.8803C146.415 42.9789 146.415 43.0775 146.391 43.1761C146.391 43.2248 146.366 43.2746 146.366 43.3234V43.3483C146.314 43.6441 146.314 43.916 146.314 44.1868C146.339 44.2605 146.363 44.3341 146.438 44.384V44.3591L146.463 44.5562C147.63 44.6781 148.74 45.1222 149.669 45.8389C149.867 46.0361 150.088 46.2332 150.286 46.4304L150.484 46.3069H150.508C150.532 46.3318 150.581 46.3318 150.606 46.3318C150.656 46.3318 150.705 46.3069 150.755 46.2831C150.977 46.1346 151.199 45.9375 151.371 45.7403C151.395 45.7154 151.445 45.6905 151.47 45.6417C151.52 45.5681 151.593 45.4933 151.668 45.4196C151.692 45.4196 151.717 45.3958 151.742 45.3709L151.765 45.346C151.864 45.2694 151.985 45.2262 152.11 45.2225C152.233 45.2225 152.382 45.2961 152.456 45.3958C152.628 45.6179 152.578 45.9136 152.357 46.0859C152.357 46.1108 152.381 46.1108 152.357 46.1357C152.332 46.1596 152.307 46.1596 152.283 46.1845C152.184 46.2332 152.11 46.2831 152.011 46.3329L151.863 46.4066C151.617 46.5484 151.386 46.7135 151.172 46.8995C151.123 46.9493 151.098 47.0479 151.098 47.1216V47.1465L150.951 47.2949C151.345 47.9113 151.642 48.6025 151.814 49.3175C151.963 50.0325 152.011 50.7724 151.913 51.4874L152.11 51.5372C152.125 51.5765 152.149 51.6121 152.178 51.6417C152.208 51.6714 152.244 51.6945 152.283 51.7095C152.554 51.7831 152.85 51.833 153.121 51.8579H153.146C153.193 51.8774 153.243 51.8856 153.294 51.8817C153.393 51.8817 153.491 51.8817 153.589 51.9066C153.639 51.9066 153.688 51.9066 153.688 51.9316C153.688 51.9554 153.712 51.9554 153.737 51.9554C153.856 51.984 153.964 52.0496 154.043 52.1428C154.123 52.236 154.171 52.352 154.181 52.4743C154.144 52.5749 154.077 52.6619 153.99 52.7238C153.902 52.7856 153.798 52.8195 153.691 52.821V52.821Z" fill="#333333"/>
<path d="M146.092 52.9445C146.012 52.8984 145.918 52.8829 145.827 52.9011C145.736 52.9192 145.655 52.9697 145.599 53.0431L144.39 55.239C144.884 55.3863 145.427 55.486 145.945 55.486C146.314 55.486 146.66 55.4373 147.005 55.3625C147.178 55.3138 147.326 55.2888 147.474 55.2639L146.29 53.1178C146.216 53.0431 146.166 52.9933 146.092 52.9445V52.9445ZM150.04 48.1334L148.189 49.8104C148.142 49.8587 148.108 49.9184 148.091 49.9838C148.041 50.2058 148.165 50.4279 148.387 50.4767L150.73 51.1429C150.783 50.6228 150.749 50.0975 150.63 49.5883C150.511 49.0754 150.312 48.5844 150.04 48.1334V48.1334ZM147.794 51.9078C147.708 51.9471 147.638 52.0158 147.597 52.1016C147.556 52.1875 147.548 52.285 147.572 52.3768L148.535 54.6963C149.133 54.3197 149.638 53.814 150.015 53.2164C150.212 52.9456 150.359 52.6238 150.484 52.2793L148.017 51.8601C147.941 51.8634 147.865 51.8795 147.794 51.9078V51.9078Z" fill="#333333"/>
<g clip-path="url(#clip0_109_66)">
<path d="M117.827 14.2964L122.509 16.9934C122.916 16.5939 123.425 16.3941 124.036 16.3941C125.156 16.3941 126.072 17.2931 126.072 18.3919C126.072 19.2909 125.461 20.09 124.545 20.2898V25.584C125.461 25.7838 126.072 26.5829 126.072 27.4819C126.072 28.5807 125.156 29.4797 124.036 29.4797C123.425 29.4797 122.916 29.1801 122.509 28.7805L117.827 31.4775C117.928 31.6773 117.928 31.8771 117.928 32.0769C117.928 33.1757 117.012 34.0747 115.892 34.0747C114.773 34.0747 113.856 33.1757 113.856 32.0769C113.856 31.8771 113.856 31.6773 113.958 31.4775L109.174 28.9803C108.767 29.3798 108.258 29.5796 107.749 29.5796C106.629 29.5796 105.713 28.6806 105.713 27.5818C105.713 26.6828 106.323 25.8837 107.24 25.6839V20.2898C106.323 20.09 105.713 19.2909 105.713 18.292C105.713 17.1932 106.629 16.2942 107.749 16.2942C108.156 16.2942 108.461 16.3941 108.767 16.5939C108.97 16.6938 109.072 16.8935 109.174 16.9934L113.856 14.2964C113.856 14.1965 113.856 13.9967 113.856 13.7969C113.856 12.6981 114.773 11.7991 115.892 11.7991C117.012 11.7991 117.928 12.6981 117.928 13.7969C117.928 13.9967 117.928 14.1965 117.827 14.2964ZM117.318 15.1954L123.425 25.6839H123.527V20.2898C122.611 20.09 122 19.2909 122 18.3919C122 18.1921 122 18.0922 122.102 17.8924C122.102 17.8924 122.102 17.8924 122.102 17.7926L117.318 15.1954ZM114.467 15.1954L109.683 17.7926C109.683 17.9923 109.785 18.1921 109.785 18.3919C109.785 19.2909 109.174 20.09 108.359 20.2898H108.258V25.584H108.359L114.467 15.1954ZM116.401 15.6949C116.198 15.6949 115.994 15.7947 115.791 15.7947C115.587 15.7947 115.383 15.7947 115.18 15.6949L109.174 26.1834C109.479 26.483 109.683 26.7827 109.785 27.1823H122.102C122.204 26.7827 122.408 26.483 122.713 26.1834L116.401 15.6949ZM117.419 30.8782L122.102 28.1812V28.0813H109.683V28.1812L114.365 30.8782C114.773 30.4786 115.282 30.2789 115.791 30.2789C116.503 30.179 117.012 30.4786 117.419 30.8782Z" fill="#333333"/>
</g>
<path d="M67.4445 17.0221C67.4445 17.307 67.3895 17.5891 67.2828 17.8523C67.1761 18.1155 67.0197 18.3546 66.8226 18.5561C66.6254 18.7575 66.3913 18.9173 66.1337 19.0263C65.8761 19.1353 65.6 19.1915 65.3212 19.1915C65.0424 19.1915 64.7663 19.1353 64.5087 19.0263C64.2511 18.9173 64.017 18.7575 63.8198 18.5561C63.6227 18.3546 63.4663 18.1155 63.3596 17.8523C63.2529 17.5891 63.1979 17.307 63.1979 17.0221C63.1979 16.4468 63.4216 15.895 63.8198 15.4882C64.218 15.0814 64.7581 14.8528 65.3212 14.8528C65.8843 14.8528 66.4244 15.0814 66.8226 15.4882C67.2208 15.895 67.4445 16.4468 67.4445 17.0221V17.0221Z" fill="#444444"/>
<path d="M65.3212 24.9993C66.9882 26.6553 68.6313 27.6347 69.9556 27.6347C70.3897 27.6347 70.8007 27.5413 71.1424 27.3318C72.3292 26.6317 72.7633 24.8823 72.3523 22.3865C72.284 21.943 72.1925 21.5005 72.078 21.0334C72.5343 20.8937 72.9453 20.7532 73.3562 20.6135C75.6624 19.7039 76.9406 18.4442 76.9406 17.0684C76.9406 15.6691 75.6624 14.4094 73.3562 13.5234C72.9453 13.3601 72.5343 13.2205 72.078 13.1035C72.1925 12.6373 72.284 12.1938 72.3523 11.7504C72.7402 9.20833 72.307 7.43534 71.1194 6.73522C70.7767 6.52572 70.3657 6.43231 69.9326 6.43231C68.6313 6.43231 66.9643 7.41176 65.2981 9.06776C63.6542 7.41176 62.0103 6.43231 60.6868 6.43231C60.2527 6.43231 59.8417 6.52572 59.5 6.73522C58.3132 7.43534 57.8791 9.18475 58.2901 11.6805C58.3585 12.124 58.4499 12.5666 58.5644 13.0336C58.1081 13.1733 57.6972 13.3139 57.2862 13.4535C54.98 14.3632 53.7018 15.6228 53.7018 16.9986C53.7018 18.3979 54.98 19.6576 57.2862 20.5437C57.6972 20.7069 58.1081 20.8466 58.5644 20.9636C58.4531 21.4102 58.3616 21.8616 58.2901 22.3167C57.9022 24.8125 58.3354 26.5854 59.5 27.262C59.8426 27.4724 60.2536 27.5649 60.6868 27.5649C62.0111 27.6111 63.6551 26.6317 65.3212 24.9993ZM64.0421 21.8505C64.4531 21.8741 64.8871 21.8741 65.3203 21.8741C65.7535 21.8741 66.1876 21.8741 66.5985 21.8505C66.196 22.391 65.7695 22.9125 65.3203 23.4131C64.8709 22.9127 64.4443 22.3913 64.0421 21.8505V21.8505ZM61.2114 19.4481C61.4395 19.8445 61.6454 20.2181 61.8966 20.5908C61.2226 20.5025 60.5525 20.3857 59.8879 20.2408C60.0938 19.6114 60.3219 18.9575 60.5953 18.3045C60.7782 18.6773 60.9832 19.0745 61.2114 19.4472V19.4481ZM59.887 13.8263C60.5261 13.6866 61.1883 13.5696 61.8958 13.4762C61.6676 13.8498 61.4395 14.2226 61.2105 14.6189C60.9815 15.0152 60.7764 15.3889 60.5945 15.7852C60.3158 15.1489 60.0795 14.4941 59.887 13.8254V13.8263ZM61.143 17.0222C61.4395 16.3928 61.7591 15.7625 62.1248 15.1331C62.4674 14.5264 62.8553 13.9206 63.2432 13.3139C64.627 13.2199 66.0154 13.2199 67.3992 13.3139C67.8102 13.9206 68.175 14.5264 68.5176 15.1331C68.8834 15.7625 69.2029 16.3928 69.4994 17.0222C69.1993 17.6662 68.8717 18.2965 68.5176 18.9113C68.175 19.518 67.7871 20.1238 67.3992 20.7305C66.0154 20.8245 64.627 20.8245 63.2432 20.7305C62.846 20.1401 62.4729 19.5331 62.1248 18.9113C61.7708 18.2964 61.4433 17.6661 61.143 17.0222V17.0222ZM70.0701 15.7625L69.4541 14.5962C69.226 14.1999 69.0201 13.8263 68.7689 13.4535C69.4763 13.5469 70.1385 13.6639 70.7776 13.8036C70.5726 14.4566 70.3435 15.1095 70.0701 15.7634V15.7625ZM70.0701 18.2819C70.3444 18.9348 70.5726 19.5878 70.7776 20.2181C70.1385 20.3578 69.4763 20.4747 68.7689 20.5682C68.997 20.1945 69.2251 19.8218 69.4541 19.4255C69.6601 19.0754 69.8651 18.6791 70.0701 18.2828V18.2819ZM70.5948 26.3759C70.4119 26.4929 70.1838 26.5392 69.9326 26.5392C68.8141 26.5392 67.4214 25.606 66.0517 24.2066C66.7496 23.4338 67.3978 22.6155 67.9922 21.7571C69.0225 21.6712 70.0452 21.5075 71.0519 21.2674C71.1664 21.6873 71.2347 22.1072 71.3031 22.5271C71.6227 24.5095 71.3714 25.9325 70.5956 26.3759H70.5948ZM71.7824 14.0829C74.3398 14.8293 75.8692 15.972 75.8692 17.0222C75.8692 17.9318 74.8191 18.8414 72.9701 19.5651C72.6044 19.7048 72.1943 19.8454 71.7833 19.9614C71.4727 18.9582 71.0991 17.9764 70.6649 17.0222C71.1211 16.0192 71.5099 15.0397 71.7833 14.0829H71.7824ZM69.9556 7.50517C70.2068 7.50517 70.4119 7.55143 70.6178 7.66842C71.3714 8.11189 71.6448 9.51124 71.3253 11.5173C71.2569 11.9136 71.1655 12.3335 71.0741 12.777C70.0633 12.5589 69.042 12.3954 68.0143 12.2873C67.4269 11.4235 66.7784 10.6048 66.0739 9.83772C67.4436 8.46105 68.8363 7.50517 69.9548 7.50517H69.9556ZM66.5994 12.1938C66.1884 12.1703 65.7544 12.1703 65.3212 12.1703C64.888 12.1703 64.454 12.1703 64.043 12.1938C64.454 11.6343 64.888 11.121 65.3212 10.6313C65.7553 11.121 66.1884 11.6579 66.5994 12.1938ZM60.0468 7.66842C60.2296 7.55143 60.4578 7.50517 60.709 7.50517C61.8274 7.50517 63.2201 8.43837 64.5898 9.83772C63.8917 10.6104 63.2435 11.4287 62.6494 12.2873C61.619 12.3732 60.5963 12.5369 59.5896 12.777C59.4751 12.3571 59.4068 11.9372 59.3384 11.5173C59.0189 9.53482 59.2701 8.13547 60.0459 7.66842H60.0468ZM58.86 19.9614C56.3027 19.2151 54.7732 18.0724 54.7732 17.0222C54.7732 16.1126 55.8233 15.2029 57.6723 14.4801C58.038 14.3405 58.4481 14.1999 58.8591 14.0838C59.1697 15.0871 59.5433 16.0689 59.9775 17.0231C59.5213 18.0261 59.1325 19.0292 58.8591 19.9624L58.86 19.9614ZM59.3393 22.5271C59.4077 22.1307 59.4991 21.7109 59.5905 21.2674C60.5492 21.4778 61.5771 21.641 62.6503 21.7571C63.2377 22.6209 63.8862 23.4396 64.5907 24.2066C63.221 25.5824 61.8283 26.5392 60.7098 26.5392C60.4586 26.5392 60.2536 26.4929 60.0477 26.3759C59.271 25.9325 59.0206 24.5095 59.3402 22.5271H59.3393Z" fill="#444444"/>
<g clip-path="url(#clip1_109_66)">
<path fill-rule="evenodd" clip-rule="evenodd" d="M28.7184 58.7041H31.3827V61.4248H32.7267C33.3397 61.4248 33.9763 61.3065 34.5658 61.1172C34.8487 61.0226 35.1788 60.8806 35.4617 60.715C35.0845 60.2182 34.8959 59.6031 34.8487 58.988C34.778 58.1599 34.943 57.0717 35.5089 56.4329L35.7918 56.1017L36.1219 56.3619C36.9708 57.048 37.6545 57.9707 37.796 59.059C38.8099 58.7514 39.9888 58.8224 40.8847 59.3429L41.2384 59.5558L41.0498 59.9343C40.2953 61.4011 38.7155 61.8743 37.183 61.7797C34.8723 67.5286 29.8737 70.2493 23.7905 70.2493C20.6546 70.2493 17.778 69.0664 16.1275 66.2747L16.104 66.2274L15.8682 65.7306C15.3023 64.5004 15.1373 63.1518 15.2552 61.8033L15.3023 61.4011H17.5658V58.7041H20.2302V56.0544H25.5353V53.381H28.7184V58.7041V58.7041Z" fill="#333333"/>
<path d="M37.348 59.7214C37.5366 58.3256 36.4992 57.2373 35.839 56.7168C35.1081 57.5685 34.9902 59.8397 36.1455 60.786C35.4853 61.3538 34.1414 61.898 32.7267 61.898H15.7031C15.5617 63.3648 15.821 64.7133 16.4105 65.8725L16.5991 66.2274C16.717 66.4403 16.8585 66.6296 17 66.8425C17.7073 66.8898 18.3439 66.9135 18.9334 66.8898C20.0887 66.8662 21.0318 66.7242 21.7628 66.4877C21.8807 66.4403 21.975 66.5113 22.0221 66.6059C22.0693 66.7242 21.9985 66.8189 21.9042 66.8662C21.8099 66.8898 21.7156 66.9372 21.5977 66.9608C21.0318 67.1264 20.4188 67.2211 19.6407 67.2684H19.4992C19.1927 67.292 18.8626 67.292 18.509 67.292C18.1317 67.292 17.778 67.292 17.3536 67.2684C18.7683 68.8771 20.9847 69.8235 23.7669 69.8235C29.6615 69.8235 34.6601 67.1974 36.8529 61.3302C38.4326 61.4958 39.9416 61.0936 40.6254 59.7451C39.5644 59.1063 38.1497 59.3192 37.348 59.7214V59.7214Z" fill="#333333"/>
<path d="M37.348 59.7214C37.5366 58.3256 36.4992 57.2373 35.839 56.7168C35.1081 57.5685 34.9902 59.8397 36.1455 60.786C35.4853 61.3538 34.1414 61.898 32.7267 61.898H16.6934C16.6227 64.1455 17.4479 65.8489 18.9334 66.8662C20.0887 66.8425 21.0318 66.7006 21.7628 66.464C21.8806 66.4167 21.975 66.4877 22.0221 66.5823C22.0693 66.7006 21.9985 66.7952 21.9042 66.8425C21.8099 66.8662 21.7156 66.9135 21.5977 66.9372C21.0318 67.1028 20.3716 67.2211 19.5936 67.2684L19.57 67.2447C21.5741 68.2857 24.4743 68.262 27.8224 66.9845C31.5477 65.5413 35.0373 62.797 37.4659 59.6741C37.4187 59.6977 37.3716 59.6977 37.348 59.7214V59.7214Z" fill="#444444"/>
<path d="M15.7267 63.6723C15.821 64.453 16.0568 65.1864 16.4105 65.8725L16.5991 66.2274C16.717 66.4403 16.8585 66.6296 16.9999 66.8425C17.7073 66.8898 18.3439 66.9135 18.9334 66.8898C20.0887 66.8662 21.0318 66.7242 21.7628 66.4876C21.8806 66.4403 21.975 66.5113 22.0221 66.6059C22.0693 66.7242 21.9985 66.8189 21.9042 66.8662C21.8099 66.8898 21.7156 66.9371 21.5977 66.9608C21.0318 67.1264 20.3716 67.2447 19.5936 67.292H19.4992C19.1927 67.3157 18.8626 67.3157 18.5325 67.3157C18.1553 67.3157 17.778 67.3157 17.3772 67.292C18.7919 68.9008 21.0318 69.8471 23.8141 69.8471C28.8598 69.8471 33.2454 67.9308 35.7918 63.696H15.7267V63.6723V63.6723Z" fill="#333333"/>
<path d="M16.8585 63.6723C17.165 65.0445 17.8723 66.1328 18.9334 66.8662C20.0887 66.8425 21.0318 66.7006 21.7628 66.464C21.8806 66.4167 21.975 66.4876 22.0221 66.5823C22.0693 66.7006 21.9985 66.7952 21.9042 66.8425C21.8099 66.8662 21.7156 66.9135 21.5977 66.9371C21.0318 67.1027 20.3716 67.221 19.57 67.2684C21.5741 68.3093 24.4743 68.2857 27.7988 67.0081C29.803 66.2274 31.7599 65.0681 33.5047 63.6723H16.8585V63.6723Z" fill="#8B8C90"/>
<path fill-rule="evenodd" clip-rule="evenodd" d="M18.0138 59.1536H20.3245V61.4721H18.0138V59.1536V59.1536ZM18.2024 59.3428H18.3911V61.2592H18.2024V59.3428ZM18.5325 59.3428H18.7212V61.2592H18.5325V59.3428ZM18.8862 59.3428H19.0748V61.2592H18.8862V59.3428ZM19.2399 59.3428H19.4285V61.2592H19.2399V59.3428ZM19.5936 59.3428H19.7822V61.2592H19.5936V59.3428ZM19.9472 59.3428H20.1359V61.2592H19.9472V59.3428ZM20.6546 56.5038H22.9652V58.8224H20.6546V56.5038V56.5038ZM20.8668 56.6931H21.0554V58.6094H20.8668V56.6931ZM21.1969 56.6931H21.3855V58.6094H21.1969V56.6931ZM21.5506 56.6931H21.7392V58.6094H21.5506V56.6931ZM21.9042 56.6931H22.0929V58.6094H21.9042V56.6931ZM22.2343 56.6931H22.4229V58.6094H22.2343V56.6931ZM22.588 56.6931H22.7766V58.6094H22.588V56.6931Z" fill="#545454"/>
<path fill-rule="evenodd" clip-rule="evenodd" d="M20.6546 59.1536H22.9653V61.4721H20.6546V59.1536V59.1536ZM20.8668 59.3428H21.0554V61.2591H20.8668V59.3428ZM21.1969 59.3428H21.3855V61.2591H21.1969V59.3428ZM21.5506 59.3428H21.7392V61.2591H21.5506V59.3428ZM21.9042 59.3428H22.0929V61.2591H21.9042V59.3428ZM22.2343 59.3428H22.423V61.2591H22.2343V59.3428ZM22.588 59.3428H22.7766V61.2591H22.588V59.3428Z" fill="#6C6D71"/>
<path fill-rule="evenodd" clip-rule="evenodd" d="M23.3189 59.1536H25.6296V61.4721H23.3189V59.1536V59.1536ZM23.5076 59.3428H23.6962V61.2591H23.5076V59.3428ZM23.8612 59.3428H24.0499V61.2591H23.8612V59.3428ZM24.2149 59.3428H24.4035V61.2591H24.2149V59.3428ZM24.545 59.3428H24.7336V61.2591H24.545V59.3428ZM24.8987 59.3428H25.0873V61.2591H24.8987V59.3428ZM25.2523 59.3428H25.441V61.2591H25.2523V59.3428Z" fill="#6C6D71"/>
<path fill-rule="evenodd" clip-rule="evenodd" d="M23.3189 56.5038H25.6296V58.8224H23.3189V56.5038V56.5038ZM23.5076 56.6931H23.6962V58.6094H23.5076V56.6931ZM23.8612 56.6931H24.0499V58.6094H23.8612V56.6931ZM24.2149 56.6931H24.4035V58.6094H24.2149V56.6931ZM24.545 56.6931H24.7336V58.6094H24.545V56.6931ZM24.8987 56.6931H25.0873V58.6094H24.8987V56.6931ZM25.2523 56.6931H25.441V58.6094H25.2523V56.6931ZM25.9833 59.1536H28.2939V61.4721H25.9833V59.1536ZM26.1719 59.3428H26.3605V61.2592H26.1719V59.3428ZM26.5256 59.3428H26.7142V61.2592H26.5256V59.3428ZM26.8557 59.3428H27.0443V61.2592H26.8557V59.3428ZM27.2093 59.3428H27.398V61.2592H27.2093V59.3428ZM27.563 59.3428H27.7516V61.2592H27.563V59.3428ZM27.9167 59.3428H28.1053V61.2592H27.9167V59.3428Z" fill="#8E8F93"/>
<path fill-rule="evenodd" clip-rule="evenodd" d="M25.9833 56.5038H28.2939V58.8224H25.9833V56.5038ZM26.1719 56.6931H26.3605V58.6094H26.1719V56.6931ZM26.5256 56.6931H26.7142V58.6094H26.5256V56.6931ZM26.8557 56.6931H27.0443V58.6094H26.8557V56.6931ZM27.2093 56.6931H27.398V58.6094H27.2093V56.6931ZM27.563 56.6931H27.7516V58.6094H27.563V56.6931ZM27.9167 56.6931H28.1053V58.6094H27.9167V56.6931Z" fill="#6C6D71"/>
<path fill-rule="evenodd" clip-rule="evenodd" d="M25.9833 53.8304H28.2939V56.149H25.9833V53.8304ZM26.1719 54.0197H26.3605V55.936H26.1719V54.0197ZM26.5256 54.0197H26.7142V55.936H26.5256V54.0197ZM26.8557 54.0197H27.0443V55.936H26.8557V54.0197ZM27.2093 54.0197H27.398V55.936H27.2093V54.0197ZM27.563 54.0197H27.7516V55.936H27.563V54.0197ZM27.9167 54.0197H28.1053V55.936H27.9167V54.0197Z" fill="#6C6D71"/>
<path fill-rule="evenodd" clip-rule="evenodd" d="M28.6476 59.1536H30.9583V61.4721H28.6476V59.1536ZM28.8362 59.3428H29.0249V61.2591H28.8362V59.3428ZM29.1663 59.3428H29.355V61.2591H29.1663V59.3428ZM29.52 59.3428H29.7086V61.2591H29.52V59.3428ZM29.8737 59.3428H30.0623V61.2591H29.8737V59.3428ZM30.2274 59.3428H30.416V61.2591H30.2274V59.3428ZM30.581 59.3428H30.7697V61.2591H30.581V59.3428Z" fill="#6C6D71"/>
<path fill-rule="evenodd" clip-rule="evenodd" d="M22.8238 65.2101C23.1775 65.2101 23.4604 65.494 23.4604 65.8489C23.4604 66.2037 23.1775 66.4876 22.8238 66.4876C22.4701 66.4876 22.1872 66.2037 22.1872 65.8489C22.1872 65.494 22.4701 65.2101 22.8238 65.2101Z" fill="#333333"/>
<path fill-rule="evenodd" clip-rule="evenodd" d="M22.8238 65.3993C22.8709 65.3993 22.9417 65.3993 22.9888 65.423C22.9417 65.4467 22.8945 65.5176 22.8945 65.5886C22.8945 65.6832 22.9888 65.7779 23.0831 65.7779C23.1539 65.7779 23.2246 65.7306 23.2482 65.6832C23.2718 65.7306 23.2718 65.8015 23.2718 65.8489C23.2718 66.1091 23.0596 66.2984 22.8238 66.2984C22.5644 66.2984 22.3758 66.0854 22.3758 65.8489C22.3758 65.6123 22.5644 65.3993 22.8238 65.3993M11.5769 63.9089H41.1441C40.5075 63.7433 39.1164 63.5303 39.3286 62.6786C38.1497 64.0272 35.3438 63.625 34.6129 62.9626C33.8113 64.1218 29.1899 63.6723 28.8834 62.7733C27.8931 63.9562 24.8044 63.9562 23.8141 62.7733C23.484 63.6723 18.8626 64.1218 18.0845 62.9626C17.3772 63.625 14.5478 64.0272 13.3689 62.6786C13.6282 63.5067 12.2135 63.7433 11.5769 63.9089" fill="#9E9E9E"/>
<path d="M24.5214 69.8234C22.9417 69.0664 22.0928 68.0491 21.5977 66.9371C21.0082 67.1027 20.3009 67.221 19.4992 67.2683C19.1927 67.292 18.8626 67.292 18.5325 67.292C18.1317 67.292 17.7309 67.292 17.3065 67.2683C18.7212 68.6878 20.5131 69.7998 23.7905 69.8234H24.5214V69.8234Z" fill="#333333"/>
<path d="M22.1872 67.9544C21.975 67.6469 21.7628 67.292 21.5977 66.9371C21.0083 67.1027 20.3009 67.221 19.4993 67.2683C20.0416 67.5522 20.8432 67.8361 22.1872 67.9544V67.9544Z" fill="#333333"/>
</g>
<path d="M36.9488 19.1962L27.4179 13.6433C26.8168 13.2998 26.0342 13.2998 25.4284 13.6433L15.7957 19.1962C15.1754 19.5543 14.7364 20.2272 14.7364 20.947V32.038C14.7364 32.7578 15.1869 33.4309 15.8072 33.7909L18.3521 35.2414C19.5685 35.8425 19.9984 35.8425 20.552 35.8425C22.353 35.8425 23.3818 34.7497 23.3818 32.8437V21.894C23.3818 21.7394 23.3016 21.5093 23.1503 21.5093H21.935C21.7811 21.5093 21.4366 21.7394 21.4366 21.8938V32.8435C21.4366 33.6884 20.6749 34.5292 19.2515 33.815L16.6218 32.2941C16.5301 32.2443 16.4655 32.1438 16.4655 32.038V20.947C16.4655 20.8424 16.5855 20.7375 16.6778 20.6839L26.2793 15.1406C26.369 15.0896 26.5008 15.0896 26.5903 15.1406L36.0747 20.6826C36.1655 20.7375 36.1335 20.8392 36.1335 20.947V32.038C36.1335 32.1438 36.1731 32.2469 36.0834 32.2978L26.5549 37.8444C26.4732 37.8936 26.3718 37.8936 26.2823 37.8444L23.8385 36.3808C23.7648 36.3378 23.6773 36.3224 23.6066 36.3621C22.9266 36.7488 22.8013 36.8002 22.1635 37.0221C22.0065 37.0769 21.7751 37.1721 22.2521 37.4404L25.4504 39.3388C25.7567 39.5167 26.1047 39.6091 26.4548 39.6091C26.8097 39.6091 27.1572 39.5167 27.4635 39.3388L36.9486 33.7909C37.5689 33.4283 37.8628 32.7578 37.8628 32.038V20.947C37.8628 20.2272 37.5689 19.556 36.9488 19.1962V19.1962ZM29.4141 30.2805C26.8797 30.2805 26.3214 29.5789 26.1354 28.3144C26.1137 28.1782 25.9985 28.0153 25.8604 28.0153H24.6218C24.4685 28.0153 24.3453 28.2018 24.3453 28.355C24.3453 29.9741 25.2226 31.9359 29.4143 31.9359C32.4486 31.9359 34.1883 30.7529 34.1883 28.6592C34.1883 26.5834 32.7906 26.0386 29.8479 25.6478C26.8735 25.2533 26.5713 25.054 26.5713 24.3548C26.5713 23.7784 26.8272 23.0096 29.0296 23.0096C30.9975 23.0096 31.7229 23.4334 32.0213 24.7643C32.0468 24.8894 32.1607 24.9792 32.2893 24.9792H33.533C33.6095 24.9792 33.6825 24.9482 33.7361 24.8933C33.788 24.8343 33.8155 24.7604 33.8086 24.681C33.616 22.3891 32.0985 21.3211 29.0294 21.3211C26.2994 21.3211 24.6708 22.4778 24.6708 24.4169C24.6708 26.52 26.2912 27.1012 28.9118 27.3613C32.0468 27.6696 32.2906 28.1294 32.2906 28.7481C32.2906 29.8227 31.4309 30.2805 29.4141 30.2805Z" fill="#333333"/>
<path d="M72.9921 37.7484C72.8737 37.7913 72.7725 37.872 72.7041 37.9781C72.5846 38.1547 72.5846 38.1598 72.5758 39.1389L72.5683 40.0272H73.7529L73.7478 39.1124L73.7428 38.1989L73.6825 38.0727C73.5806 37.8582 73.4159 37.7358 73.2021 37.7232C73.1315 37.7173 73.0605 37.7258 72.9933 37.7484H72.9921ZM59.4802 37.8204C59.1821 37.8696 58.8929 38.0727 58.8187 38.2822C58.7847 38.3768 58.7822 38.4513 58.7772 40.7729C58.7722 43.5198 58.7596 43.3167 58.9294 43.5009C58.9925 43.5741 59.072 43.6314 59.1614 43.668C59.2508 43.7046 59.3475 43.7195 59.4437 43.7116C59.6197 43.7116 59.6436 43.7078 59.7555 43.6535C59.8937 43.5946 60.0037 43.4843 60.0624 43.3457L60.1064 43.2384L60.1152 41.4719L60.124 39.7067L60.632 40.325L62.0467 42.0536C63.0075 43.2309 63.2275 43.4731 63.4086 43.569C63.581 43.6702 63.7788 43.7193 63.9783 43.7103C64.3027 43.7103 64.5026 43.6283 64.6271 43.439C64.7554 43.2447 64.7491 43.4214 64.7491 40.7174V38.2885L64.7051 38.1812C64.6754 38.1092 64.6318 38.0438 64.5768 37.9887C64.5217 37.9337 64.4564 37.8902 64.3844 37.8607C64.2954 37.827 64.2004 37.812 64.1053 37.8166C63.9587 37.8038 63.812 37.8397 63.6878 37.9188C63.6278 37.9579 63.5762 38.0086 63.5361 38.068C63.4959 38.1273 63.468 38.1942 63.4539 38.2645C63.4413 38.3226 63.4338 38.9433 63.4338 40.1168C63.4338 41.0884 63.4287 41.882 63.4212 41.8795C63.4086 41.8795 60.8647 38.7995 60.4887 38.3301C60.3051 38.103 60.1605 37.9667 60.0335 37.9062C59.8595 37.83 59.669 37.8 59.4802 37.8191V37.8204ZM81.6538 37.833C81.5628 37.8582 81.4783 37.9029 81.4062 37.9642C81.3341 38.0254 81.2761 38.1016 81.2363 38.1875C81.2027 38.2656 81.186 38.3499 81.1873 38.4348C81.1742 38.5357 81.1872 38.6383 81.225 38.7326C81.3143 38.9875 81.3445 39.0241 82.2297 39.9174C82.6925 40.383 83.0698 40.7729 83.0698 40.7817C83.0698 40.7906 82.6925 41.1805 82.2297 41.6461C81.3306 42.552 81.2954 42.5937 81.2162 42.8523C81.1588 43.0358 81.1732 43.2343 81.2564 43.4075C81.4664 43.8024 81.9342 43.8617 82.3982 43.5513C82.4435 43.5223 82.8535 43.1236 83.3099 42.6668L84.1386 41.8366L84.9686 42.6668C85.4238 43.1236 85.8338 43.5223 85.879 43.5513C86.0953 43.6964 86.3292 43.7696 86.5078 43.7494C86.6152 43.7408 86.7186 43.7049 86.8084 43.6451C86.8981 43.5852 86.9713 43.5035 87.0208 43.4075C87.1034 43.2341 87.1178 43.0359 87.0611 42.8523C86.9819 42.5937 86.9467 42.552 86.0475 41.6461C85.5848 41.1805 85.2075 40.7906 85.2075 40.7817C85.2075 40.7729 85.5848 40.383 86.0475 39.9174C86.9328 39.0241 86.963 38.9875 87.0523 38.7326C87.0899 38.6382 87.1029 38.5357 87.09 38.4348C87.0922 38.349 87.0755 38.2637 87.041 38.185C86.9766 38.0506 86.869 37.9419 86.7356 37.8762C86.6022 37.8105 86.4506 37.7917 86.3053 37.8229C86.2083 37.8481 86.1139 37.8827 86.0236 37.9264L85.8514 38.0122L84.1374 39.7244L83.281 38.8676L82.4234 38.0122L82.2511 37.9264C82.0122 37.8103 81.8361 37.7812 81.6513 37.8317L81.6538 37.833ZM75.0871 37.8633C75.0002 37.8827 74.919 37.9221 74.8498 37.9784C74.7806 38.0347 74.7254 38.1062 74.6885 38.1875L74.6482 38.2708V43.1829L74.6985 43.2927C74.7286 43.3567 74.7675 43.4162 74.8142 43.4693C74.9576 43.617 75.2569 43.6889 75.5649 43.6498C75.8529 43.6132 76.0503 43.5047 76.288 43.2548C76.3622 43.1753 77.0601 42.3413 77.8385 41.4025L79.2532 39.6954L79.262 41.4568L79.2708 43.2195L79.3148 43.3141C79.3928 43.4908 79.5651 43.6119 79.7814 43.6472C80.0442 43.6914 80.2819 43.627 80.434 43.4744C80.6075 43.3015 80.5937 43.5034 80.6013 40.9369C80.6063 38.585 80.6038 38.4311 80.5283 38.2607C80.4554 38.0879 80.1913 37.91 79.9373 37.8607C79.6929 37.8209 79.4423 37.8711 79.2318 38.0021C79.1627 38.0475 79.0181 38.2065 78.7137 38.5711C77.8026 39.6679 76.8846 40.759 75.9598 41.8442C75.9523 41.8467 75.9435 41.0492 75.9422 40.0752C75.9372 38.4727 75.9334 38.2998 75.9057 38.2304C75.8747 38.1428 75.8225 38.0642 75.7538 38.0016C75.6851 37.9391 75.6021 37.8946 75.5121 37.8721C75.373 37.8401 75.2287 37.8371 75.0883 37.8633H75.0871ZM66.6731 37.9377C66.6241 38.0235 65.232 40.6013 65.1867 40.6909L65.1591 40.7477L65.9702 42.2101L66.7812 43.675L70.1753 43.6838L71.009 42.1432L71.8427 40.6001L71.1976 40.5887C70.0394 40.5685 68.201 40.571 68.0828 40.5925C67.9338 40.6153 67.7973 40.6893 67.6967 40.8019C67.3848 41.1439 67.5936 41.6448 68.0828 41.7356C68.1519 41.7483 68.5166 41.7558 69.085 41.7558H69.9791L69.7012 42.2139L69.4233 42.6744L67.5534 42.6832L67.0415 41.7571C66.866 41.4436 66.6962 41.1268 66.5323 40.807C66.5323 40.7918 66.746 40.3868 67.0089 39.9048L67.4842 39.0266H69.539L69.8433 39.5263L70.1501 40.0247L70.8279 40.0272H71.5044L71.4793 39.9856C71.4642 39.9641 71.1725 39.4758 70.8304 38.903L70.208 37.862H66.7159L66.6718 37.939L66.6731 37.9377ZM72.5758 41.8959C72.5834 43.188 72.5834 43.2044 72.6224 43.3204C72.6445 43.3987 72.6827 43.4714 72.7344 43.534C72.7862 43.5965 72.8504 43.6476 72.9229 43.6838C72.993 43.7226 73.071 43.7443 73.151 43.7474C73.2309 43.7505 73.3104 43.7347 73.3832 43.7015C73.5245 43.6274 73.636 43.5066 73.6988 43.3596L73.7403 43.2561L73.7453 41.935L73.7504 40.6139L73.573 40.6026C73.3762 40.5931 73.1791 40.5889 72.982 40.59H72.5683L72.5733 41.8946L72.5758 41.8959Z" fill="#333333"/>
<g clip-path="url(#clip2_109_66)">
<path d="M50.3003 66.9314C50.3003 67.1604 50.6153 67.4036 51.2152 67.6913C52.4148 68.2667 59.0743 70.9656 60.1259 71.47C61.1784 71.9753 61.9178 71.982 63.2505 71.2845C64.5822 70.588 70.8399 68.0064 72.048 67.3743C72.662 67.0535 72.9336 66.8036 72.9336 66.5775C72.9336 66.3636 72.9345 64.3138 72.9345 64.3138C72.9336 64.3129 72.9308 64.3129 72.9298 64.312C72.9204 64.5287 72.6346 64.7709 72.048 65.0785C70.8399 65.7097 64.5822 68.2922 63.2505 68.9887C61.9188 69.6852 61.1784 69.6786 60.1259 69.1732C59.0733 68.6689 52.4148 65.969 51.2152 65.3946C50.6163 65.1069 50.3107 64.8646 50.3003 64.6356V66.9314Z" fill="#333333"/>
<path d="M50.3003 63.1887C50.3003 63.4177 50.6153 63.6599 51.2152 63.9476C52.4148 64.523 59.0733 67.2219 60.1259 67.7263C61.1784 68.2316 61.9178 68.2383 63.2505 67.5418C64.5822 66.8453 70.8399 64.2627 72.048 63.6315C72.662 63.3098 72.9336 63.06 72.9336 62.8338C72.9336 62.6199 72.9345 60.5702 72.9345 60.5702C72.9336 60.5692 72.9308 60.5702 72.9289 60.5692C72.9185 60.7859 72.6337 61.0272 72.048 61.3348C70.8399 61.966 64.5822 64.5485 63.2505 65.245C61.9188 65.9415 61.1784 65.9349 60.1259 65.4305C59.0733 64.9261 52.4148 62.2262 51.2152 61.6509C50.6163 61.3641 50.3107 61.1209 50.3003 60.8929V63.1887V63.1887Z" fill="#333333"/>
<path d="M72.0339 56.0306C70.8568 55.5981 64.6369 53.114 63.4457 52.6759C62.2545 52.2377 61.7698 52.2567 60.3702 52.7601C58.9705 53.2645 52.3479 55.8707 51.1699 56.3334C50.5804 56.5662 50.2919 56.7811 50.3022 57.0101V59.3059C50.3022 59.5349 50.6172 59.7771 51.2171 60.0648C52.4167 60.6402 59.0752 63.3401 60.1278 63.8445C61.1803 64.3489 61.9197 64.3555 63.2524 63.659C64.5841 62.9625 70.8417 60.38 72.0499 59.7488C72.6639 59.427 72.9355 59.1772 72.9355 58.951C72.9355 58.7381 72.9364 56.6874 72.9364 56.6874H72.9289C72.9402 56.4565 72.6394 56.254 72.0339 56.0306ZM60.8992 54.5061L60.3918 53.5673L61.9744 54.1881L63.4665 53.6979L63.0628 54.6679L64.5831 55.2395L62.6224 55.4439L62.1829 56.5038L61.4736 55.3218L59.2092 55.1174L60.8992 54.5061ZM54.1879 56.9202C54.1879 56.3183 55.4432 55.83 56.9919 55.83C58.5405 55.83 59.7948 56.3183 59.7948 56.9202C59.7948 57.522 58.5395 58.0103 56.9919 58.0103C55.4442 58.0103 54.1879 57.5211 54.1879 56.9202ZM62.0659 60.3828L58.4056 58.8601L63.6504 58.052L62.0659 60.3828ZM66.5675 58.123L63.4674 56.8937L66.9023 55.531L70.0052 56.7612L66.5675 58.123Z" fill="#333333"/>
</g>
<path d="M204.098 19.9215C204.045 19.3396 203.943 18.7633 203.792 18.1988C203.324 16.422 202.543 14.721 201.442 13.2465C201.142 12.8443 200.818 12.4606 200.471 12.0975C200.114 11.7233 199.718 11.3798 199.469 10.914C199.312 10.6193 199.162 10.3208 199.009 10.0238C199.007 10.1168 199.001 10.2098 199.001 10.302C199.001 10.209 199.007 10.116 199.009 10.023L198.912 9.77777C198.895 9.83402 198.885 9.85352 198.885 9.87452C198.872 10.3583 198.597 10.6868 198.256 10.9935C197.872 11.3385 197.514 11.7128 197.145 12.0743C197.158 12.0908 197.172 12.1073 197.187 12.1238C197.172 12.1073 197.158 12.0915 197.145 12.0743C196.048 13.5173 195.081 15.06 194.512 16.7918C194.346 17.2958 194.216 17.8111 194.124 18.3338C193.93 19.4445 193.84 20.5238 193.902 21.6488C193.937 22.2705 194.046 22.8825 194.208 23.4848C194.796 25.6725 195.992 27.4868 197.626 29.0288C197.93 29.3153 198.258 29.5755 198.575 29.8485L198.577 29.8403L198.575 29.8485L198.715 30.33L198.846 31.077L198.908 31.8563C198.907 32.0145 198.9 32.1735 198.91 32.331C198.912 32.3715 198.966 32.409 198.995 32.448L198.998 32.4435L198.995 32.448L199.26 32.541L199.535 32.6483C199.519 32.4172 199.504 32.1862 199.488 31.9553L199.485 31.2728L199.469 31.2885L199.485 31.2728L199.581 30.2333L199.649 30.0068L199.847 29.6565C200.091 29.46 200.352 29.2823 200.575 29.064C200.977 28.6688 201.378 28.269 201.737 27.8363C202.206 27.2754 202.605 26.6608 202.929 26.0055C203.846 24.1373 204.27 22.0538 204.102 19.9763L204.097 19.9208L204.098 19.9215Z" fill="#444444"/>
<path d="M184.058 63.584C184.038 63.64 183.969 63.701 183.969 63.702C189.915 62.121 187.729 58.129 184.886 59.14C184.636 59.23 184.505 59.437 184.505 59.437C184.505 59.437 184.663 59.373 185.014 59.299C186.452 58.995 188.51 61.244 184.058 63.584ZM171.439 68.324C180.911 69.877 188.704 67.624 186.246 66.504C186.246 66.504 186.917 67.063 185.508 67.495C182.826 68.317 174.348 68.564 171.993 67.528C171.147 67.155 172.735 66.638 173.233 66.53C173.753 66.416 174.051 66.437 174.051 66.437C173.111 65.766 167.966 67.754 171.439 68.324Z" fill="#333333"/>
<path d="M187.75 67.726C187.75 67.726 187.451 68.501 184.218 69.117C180.572 69.811 176.072 69.73 173.405 69.285C173.405 69.284 173.952 69.742 176.759 69.924C181.033 70.201 187.595 69.771 187.75 67.726ZM182.195 62.549C179.449 63.084 177.863 63.065 175.854 62.856C174.302 62.693 175.318 61.932 175.318 61.932C171.299 63.28 177.555 64.811 183.17 63.15C182.574 62.938 182.195 62.549 182.195 62.549Z" fill="#333333"/>
<path d="M176.243 53.627C175.136 55.308 176.787 57.113 179.035 59.166C178.158 57.162 175.184 55.407 179.036 52.33C183.84 48.494 181.374 46 181.374 46C182.37 49.962 177.868 51.158 176.243 53.627Z" fill="#333333"/>
<path d="M175.887 64.56C172.239 65.591 178.106 67.722 182.752 65.709C181.991 65.409 181.446 65.063 181.446 65.063C179.375 65.461 178.414 65.492 176.533 65.274C174.98 65.094 175.887 64.56 175.887 64.56ZM182.992 60.67C183.448 60.355 184.078 60.083 184.078 60.083C184.078 60.083 182.287 60.408 180.501 60.56C178.317 60.745 175.972 60.781 174.797 60.622C172.01 60.246 176.323 59.21 176.323 59.21C176.323 59.21 174.648 59.096 172.59 60.102C170.153 61.293 178.614 61.835 182.992 60.67Z" fill="#333333"/>
<path d="M173.437 66.3C171.828 66.3 168.458 67.834 171.44 68.324C173.732 68.7 175.926 68.853 177.9 68.853C178.275 68.853 178.642 68.848 179 68.837V68.202C178.672 68.209 178.343 68.212 178.016 68.212C175.485 68.212 173.084 68.008 171.994 67.528C171.148 67.155 172.736 66.638 173.234 66.53C173.614 66.447 173.875 66.435 173.989 66.435C174.031 66.435 174.052 66.437 174.052 66.437C173.92 66.342 173.702 66.3 173.437 66.3ZM173.405 69.285C173.407 69.285 173.956 69.742 176.759 69.924C177.457 69.969 178.217 69.996 178.999 69.999V69.621C178.739 69.626 178.48 69.629 178.223 69.629C176.393 69.629 174.688 69.499 173.405 69.285ZM175.318 61.933C172.551 62.861 174.655 63.876 178.067 63.876C178.369 63.876 178.68 63.868 179 63.851V62.97C178.709 62.985 178.427 62.992 178.15 62.992C177.385 62.992 176.653 62.939 175.854 62.856C174.302 62.694 175.318 61.933 175.318 61.933Z" fill="#333333"/>
<path d="M179 51.047C177.976 51.874 176.885 52.651 176.243 53.627C175.142 55.299 176.77 57.095 179 59.134V59.089C178.086 57.123 175.25 55.379 179 52.358V51.047Z" fill="#333333"/>
<path d="M175.887 64.56C173.332 65.282 175.444 66.543 178.534 66.543C178.687 66.543 178.843 66.54 179 66.533V65.395C178.825 65.404 178.651 65.408 178.477 65.408C177.889 65.408 177.284 65.361 176.532 65.273C174.98 65.094 175.887 64.56 175.887 64.56ZM176.16 59.206C175.692 59.206 174.268 59.282 172.59 60.102C171.099 60.831 173.691 61.317 176.93 61.317C177.603 61.317 178.303 61.296 179.001 61.252V60.663C178.251 60.702 177.518 60.723 176.855 60.723C176.024 60.723 175.303 60.691 174.798 60.622C172.01 60.246 176.323 59.21 176.323 59.21C176.323 59.21 176.266 59.206 176.16 59.206Z" fill="#333333"/>
<path d="M184.347 50.902C184.347 50.901 176.224 52.953 180.103 57.475C181.248 58.808 179.802 60.008 179.802 60.008C179.802 60.008 182.708 58.49 181.373 56.59C180.128 54.818 179.172 53.938 184.347 50.902Z" fill="#333333"/>
<path d="M180.746 52.51C179.213 53.588 178.174 55.226 180.104 57.475C181.249 58.808 179.803 60.008 179.803 60.008C179.803 60.008 180.272 59.763 180.746 59.347V55.674C180.348 55.018 180.199 54.42 180.746 53.647V52.51Z" fill="#333333"/>
<path d="M221.031 43.2812L221.088 43.2437C220.975 43.0375 220.806 42.85 220.638 42.7562L211.581 37.5437C211.431 37.45 211.225 37.4125 211 37.4125C210.775 37.4125 210.569 37.4687 210.419 37.5437L201.419 42.775C201.1 42.9625 200.875 43.4312 200.875 43.7875V54.2312C200.875 54.4375 200.912 54.6625 201.044 54.8687L201.006 54.8875C201.1 55.0375 201.231 55.1687 201.363 55.2437L210.4 60.475C210.55 60.5687 210.756 60.6062 210.981 60.6062C211.206 60.6062 211.412 60.55 211.562 60.475L220.562 55.2437C220.881 55.0562 221.106 54.5875 221.106 54.2312V43.7687C221.125 43.6187 221.106 43.45 221.031 43.2812V43.2812ZM211 53.5937C212.706 53.5937 214.206 52.6562 214.994 51.2687L217.412 52.6937C216.137 54.9062 213.738 56.4062 211 56.4062C206.913 56.4062 203.594 53.0875 203.594 49C203.594 44.9125 206.913 41.5937 211 41.5937C213.756 41.5937 216.156 43.1125 217.431 45.3437L214.994 46.75C214.206 45.3437 212.706 44.4062 211 44.4062C208.469 44.4062 206.406 46.4687 206.406 49C206.406 51.5312 208.469 53.5937 211 53.5937V53.5937Z" fill="#333333"/>
<g clip-path="url(#clip3_109_66)">
<path d="M178.965 20.0593C178.964 19.6568 178.88 19.3012 178.708 18.996C178.54 18.6958 178.288 18.4443 177.95 18.2454C175.159 16.6106 172.365 14.9809 169.575 13.3444C168.822 12.9033 168.093 12.9194 167.346 13.3669C166.236 14.0324 160.673 17.2693 159.016 18.2445C158.333 18.6458 158.001 19.2601 158.001 20.0585C158 23.3461 158.001 26.6336 158 29.9213C158 30.3149 158.081 30.6636 158.245 30.9643C158.414 31.2735 158.669 31.532 159.015 31.7354C160.673 32.7105 166.235 35.9472 167.346 36.6129C168.093 37.0606 168.822 37.0766 169.575 36.6353C172.365 34.9988 175.159 33.3691 177.951 31.7344C178.297 31.531 178.552 31.2724 178.721 30.9634C178.884 30.6628 178.966 30.3141 178.966 29.9204C178.966 29.9204 178.966 23.3469 178.965 20.0593" fill="#333333"/>
<path d="M168.515 24.9579L158.245 30.9643C158.414 31.2735 158.669 31.532 159.015 31.7354C160.673 32.7105 166.235 35.9472 167.346 36.6129C168.093 37.0606 168.822 37.0766 169.575 36.6353C172.365 34.9988 175.159 33.3691 177.951 31.7344C178.297 31.5311 178.552 31.2724 178.721 30.9635L168.515 24.9579" fill="#333333"/>
<path d="M165.473 26.737C166.071 27.7968 167.194 28.5115 168.483 28.5115C169.78 28.5115 170.909 27.7877 171.504 26.7166L168.515 24.9579L165.473 26.737" fill="#333333"/>
<path d="M178.965 20.0593C178.964 19.6568 178.88 19.3012 178.708 18.996L168.515 24.9579L178.721 30.9634C178.884 30.6628 178.966 30.3141 178.966 29.9204C178.966 29.9204 178.966 23.347 178.965 20.0593" fill="#333333"/>
<path d="M178.403 25.3872H177.606V26.1974H176.808V25.3872H176.011V24.5772H176.808V23.7671H177.606V24.5772H178.403V25.3872ZM175.493 25.3872H174.696V26.1974H173.898V25.3872H173.101V24.5772H173.898V23.7671H174.696V24.5772H175.493V25.3872Z" fill="#6C6D71"/>
<path d="M171.504 26.7167C170.909 27.7877 169.78 28.5116 168.483 28.5116C167.194 28.5116 166.071 27.7968 165.473 26.7371C165.173 26.2053 165.015 25.6029 165.016 24.9899C165.016 23.045 166.568 21.4683 168.483 21.4683C169.763 21.4683 170.881 22.1742 171.481 23.2231L174.512 21.4506C173.307 19.3386 171.058 17.9178 168.483 17.9178C164.638 17.9178 161.52 21.0841 161.52 24.9899C161.52 26.2713 161.856 27.4729 162.443 28.5094C163.644 30.6325 165.899 32.0621 168.483 32.0621C171.071 32.0621 173.33 30.6268 174.53 28.4974L171.504 26.7167Z" fill="#6C6D71"/>
</g>
<defs>
<filter id="filter0_ii_109_66" x="0.616211" y="0.389038" width="230.799" height="145.611" filterUnits="userSpaceOnUse" color-interpolation-filters="sRGB">
<feFlood flood-opacity="0" result="BackgroundImageFix"/>
<feBlend mode="normal" in="SourceGraphic" in2="BackgroundImageFix" result="shape"/>
<feColorMatrix in="SourceAlpha" type="matrix" values="0 0 0 0 0 0 0 0 0 0 0 0 0 0 0 0 0 0 127 0" result="hardAlpha"/>
<feOffset dy="4"/>
<feGaussianBlur stdDeviation="2"/>
<feComposite in2="hardAlpha" operator="arithmetic" k2="-1" k3="1"/>
<feColorMatrix type="matrix" values="0 0 0 0 0.545098 0 0 0 0 0.54902 0 0 0 0 0.564706 0 0 0 1 0"/>
<feBlend mode="normal" in2="shape" result="effect1_innerShadow_109_66"/>
<feColorMatrix in="SourceAlpha" type="matrix" values="0 0 0 0 0 0 0 0 0 0 0 0 0 0 0 0 0 0 127 0" result="hardAlpha"/>
<feOffset/>
<feGaussianBlur stdDeviation="2"/>
<feComposite in2="hardAlpha" operator="arithmetic" k2="-1" k3="1"/>
<feColorMatrix type="matrix" values="0 0 0 0 0.110764 0 0 0 0 0.112778 0 0 0 0 0.120833 0 0 0 1 0"/>
<feBlend mode="normal" in2="effect1_innerShadow_109_66" result="effect2_innerShadow_109_66"/>
</filter>
<linearGradient id="paint0_linear_109_66" x1="116" y1="0.389038" x2="116" y2="142" gradientUnits="userSpaceOnUse">
<stop stop-color="#97989C" stop-opacity="0"/>
<stop offset="0.0625" stop-color="#8E8F93"/>
<stop offset="0.125" stop-color="#86878B"/>
<stop offset="0.255208" stop-color="#747578"/>
<stop offset="1" stop-color="#0E0E10"/>
</linearGradient>
<linearGradient id="paint1_linear_109_66" x1="108.653" y1="61.8575" x2="116.169" y2="86.7308" gradientUnits="userSpaceOnUse">
<stop stop-color="#2B2C2E" stop-opacity="0.71"/>
<stop offset="1" stop-color="#222325"/>
</linearGradient>
<linearGradient id="paint2_linear_109_66" x1="109.427" y1="61.8575" x2="129.975" y2="72.6467" gradientUnits="userSpaceOnUse">
<stop stop-color="#D6D7DB"/>
<stop offset="1" stop-color="#6C6D71"/>
</linearGradient>
<linearGradient id="paint3_linear_109_66" x1="-0.0309856" y1="5.33375" x2="7.1537" y2="31.1476" gradientUnits="userSpaceOnUse">
<stop stop-color="#E9EAEC"/>
<stop offset="1" stop-color="#707175"/>
</linearGradient>
<clipPath id="clip0_109_66">
<rect width="21.3776" height="23.9737" fill="white" transform="translate(105 11)"/>
</clipPath>
<clipPath id="clip1_109_66">
<rect width="30.1802" height="30.2826" fill="white" transform="translate(11.3176 46.6857)"/>
</clipPath>
<clipPath id="clip2_109_66">
<rect width="22.6352" height="22.7119" fill="white" transform="translate(50.3003 50.4709)"/>
</clipPath>
<clipPath id="clip3_109_66">
<rect width="21" height="24" fill="white" transform="translate(158 13)"/>
</clipPath>
</defs>
</svg>
